<mxfile host="app.diagrams.net" agent="Mozilla/5.0 (Windows NT 10.0; Win64; x64) AppleWebKit/537.36 (KHTML, like Gecko) Chrome/135.0.0.0 Safari/537.36 OPR/120.0.0.0" version="28.2.0">
  <diagram name="Página-1" id="Tw0pj5jOisCFB5SGHmiF">
    <mxGraphModel dx="671" dy="340" grid="1" gridSize="10" guides="1" tooltips="1" connect="1" arrows="1" fold="1" page="1" pageScale="1" pageWidth="827" pageHeight="1169" math="0" shadow="0">
      <root>
        <mxCell id="0" />
        <mxCell id="1" parent="0" />
        <mxCell id="UdCfqi_v1zDFMZfDQ5v8-1" value="Atendente" style="shape=umlActor;" vertex="1" parent="1">
          <mxGeometry x="190" y="280" width="40" height="80" as="geometry" />
        </mxCell>
        <mxCell id="UdCfqi_v1zDFMZfDQ5v8-2" value="Cliente" style="shape=umlActor;" vertex="1" parent="1">
          <mxGeometry x="200" y="710" width="40" height="80" as="geometry" />
        </mxCell>
        <mxCell id="UdCfqi_v1zDFMZfDQ5v8-3" value="Veterinário" style="shape=umlActor;" vertex="1" parent="1">
          <mxGeometry x="200" y="970" width="40" height="80" as="geometry" />
        </mxCell>
        <mxCell id="UdCfqi_v1zDFMZfDQ5v8-4" value="Registrar Cliente" style="ellipse;whiteSpace=wrap;" vertex="1" parent="1">
          <mxGeometry x="560" y="120" width="120" height="60" as="geometry" />
        </mxCell>
        <mxCell id="UdCfqi_v1zDFMZfDQ5v8-5" value="Registrar Venda" style="ellipse;whiteSpace=wrap;" vertex="1" parent="1">
          <mxGeometry x="560" y="220" width="120" height="60" as="geometry" />
        </mxCell>
        <mxCell id="UdCfqi_v1zDFMZfDQ5v8-6" value="Gerenciar Pagamento" style="ellipse;whiteSpace=wrap;" vertex="1" parent="1">
          <mxGeometry x="560" y="320" width="150" height="60" as="geometry" />
        </mxCell>
        <mxCell id="UdCfqi_v1zDFMZfDQ5v8-7" value="Acompanhar Quitação" style="ellipse;whiteSpace=wrap;" vertex="1" parent="1">
          <mxGeometry x="560" y="420" width="150" height="60" as="geometry" />
        </mxCell>
        <mxCell id="UdCfqi_v1zDFMZfDQ5v8-8" value="Escrivão Avaliação Periódica" style="ellipse;whiteSpace=wrap;" vertex="1" parent="1">
          <mxGeometry x="540" y="820" width="180" height="60" as="geometry" />
        </mxCell>
        <mxCell id="UdCfqi_v1zDFMZfDQ5v8-9" value="Emitir Relatórios" style="ellipse;whiteSpace=wrap;" vertex="1" parent="1">
          <mxGeometry x="560" y="620" width="150" height="60" as="geometry" />
        </mxCell>
        <mxCell id="UdCfqi_v1zDFMZfDQ5v8-10" value="Consultar Quitação" style="ellipse;whiteSpace=wrap;" vertex="1" parent="1">
          <mxGeometry x="560" y="720" width="150" height="60" as="geometry" />
        </mxCell>
        <mxCell id="UdCfqi_v1zDFMZfDQ5v8-11" edge="1" parent="1" source="UdCfqi_v1zDFMZfDQ5v8-1" target="UdCfqi_v1zDFMZfDQ5v8-4">
          <mxGeometry relative="1" as="geometry" />
        </mxCell>
        <mxCell id="UdCfqi_v1zDFMZfDQ5v8-12" edge="1" parent="1" source="UdCfqi_v1zDFMZfDQ5v8-1" target="UdCfqi_v1zDFMZfDQ5v8-5">
          <mxGeometry relative="1" as="geometry" />
        </mxCell>
        <mxCell id="UdCfqi_v1zDFMZfDQ5v8-13" edge="1" parent="1" source="UdCfqi_v1zDFMZfDQ5v8-1" target="UdCfqi_v1zDFMZfDQ5v8-6">
          <mxGeometry relative="1" as="geometry" />
        </mxCell>
        <mxCell id="UdCfqi_v1zDFMZfDQ5v8-14" edge="1" parent="1" source="UdCfqi_v1zDFMZfDQ5v8-1" target="UdCfqi_v1zDFMZfDQ5v8-7">
          <mxGeometry relative="1" as="geometry" />
        </mxCell>
        <mxCell id="UdCfqi_v1zDFMZfDQ5v8-15" edge="1" parent="1" source="UdCfqi_v1zDFMZfDQ5v8-1" target="UdCfqi_v1zDFMZfDQ5v8-9">
          <mxGeometry relative="1" as="geometry" />
        </mxCell>
        <mxCell id="UdCfqi_v1zDFMZfDQ5v8-16" edge="1" parent="1" source="UdCfqi_v1zDFMZfDQ5v8-2" target="UdCfqi_v1zDFMZfDQ5v8-10">
          <mxGeometry relative="1" as="geometry" />
        </mxCell>
        <mxCell id="UdCfqi_v1zDFMZfDQ5v8-17" style="entryX=0;entryY=0.5;entryDx=0;entryDy=0;" edge="1" parent="1" source="UdCfqi_v1zDFMZfDQ5v8-3" target="UdCfqi_v1zDFMZfDQ5v8-8">
          <mxGeometry relative="1" as="geometry" />
        </mxCell>
        <mxCell id="UdCfqi_v1zDFMZfDQ5v8-18" style="exitX=0.237;exitY=0.336;exitDx=0;exitDy=0;exitPerimeter=0;" edge="1" parent="1" target="UdCfqi_v1zDFMZfDQ5v8-6" source="UdCfqi_v1zDFMZfDQ5v8-19">
          <mxGeometry relative="1" as="geometry">
            <mxPoint x="914" y="217" as="sourcePoint" />
          </mxGeometry>
        </mxCell>
        <mxCell id="UdCfqi_v1zDFMZfDQ5v8-19" value="Sistema Externo (Pagamento)" style="shape=umlActor;" vertex="1" parent="1">
          <mxGeometry x="940" y="170" width="70" height="90" as="geometry" />
        </mxCell>
      </root>
    </mxGraphModel>
  </diagram>
</mxfile>
